:SAMPLES-PER-SECOND 30
:FULLY-SPECIFIED
:DEGREES
203
root  -15.2109 34.7629 -9.08529 -173.566 0.731155 178.561
RightUpLeg  -7.06711 -9.08315 0.0139249
RightLeg  10.3147 1.33215 0.155823
RightFoot  0.545332 0.00626308 0.145482
RightToes  -25.3262 -0.113096 -0.218206
Spine  -3.39397 0.264059 -0.275128
Spine1  -6.83766 0.562398 0.117589
HEad  -65.2385 -3.2083 7.01673
LeftShoulder1  -1.94126e-019 -3.10601e-018 -2.51263e-017
LeftArm  -13.7594 27.0175 -79.6796
LeftForeArm  30.6974 -17.6712 -3.10046
LeftHand  -0.431189 -1.72253 7.21567
RightShoulder  -4.96962e-017 0 -2.36833e-017
RightArm  -28.2968 -25.8442 77.9948
RightForeArm  59.2532 11.2768 1.51617
RightHand  -0.529776 -0.18057 -11.8339
LeftUpLeg  -5.87937 -3.95743 -2.35143
LeftLeg  9.04754 11.7533 1.09481
LeftFoot  1.37025 -0.00325715 0.433942
LeftToes  -17.7458 1.31424e-006 1.14295e-007
204
root  -15.196 34.7527 -9.15221 -173.507 0.509018 178.583
RightUpLeg  -6.96182 -9.12008 0.0747854
RightLeg  10.249 1.20432 0.139571
RightFoot  0.547779 0.0067135 0.143571
RightToes  -24.8101 -0.109864 -0.214327
Spine  -3.40511 0.260357 -0.283558
Spine1  -6.86081 0.553254 0.0986791
HEad  -65.3253 -3.30857 6.98356
LeftShoulder1  -1.94126e-019 -3.10601e-018 -2.51263e-017
LeftArm  -13.7564 26.9446 -79.8945
LeftForeArm  30.7863 -17.9822 -3.1472
LeftHand  -0.429597 -1.65579 7.22525
RightShoulder  -4.96962e-017 0 -2.36833e-017
RightArm  -28.3453 -25.9362 78.0669
RightForeArm  59.1739 11.2596 1.51709
RightHand  -0.530112 -0.269124 -12.0377
LeftUpLeg  -5.90465 -4.34436 -2.32205
LeftLeg  9.18595 11.9346 1.14032
LeftFoot  1.11676 -0.00217118 0.38435
LeftToes  -17.1689 1.31424e-006 1.14295e-007
205
root  -15.1823 34.7365 -9.22134 -173.437 0.346924 178.68
RightUpLeg  -6.83606 -9.27137 0.198293
RightLeg  10.1168 1.1839 0.134468
RightFoot  0.522801 0.00704034 0.142121
RightToes  -24.5049 -0.10637 -0.212019
Spine  -3.40141 0.276483 -0.260843
Spine1  -6.85452 0.585569 0.138781
HEad  -65.4181 -3.32343 6.8891
LeftShoulder1  -1.94126e-019 -3.10601e-018 -2.51263e-017
LeftArm  -13.8061 26.8862 -80.1596
LeftForeArm  30.6745 -18.4435 -3.21955
LeftHand  -0.425204 -1.58388 7.31475
RightShoulder  -4.96962e-017 0 -2.36833e-017
RightArm  -28.4969 -25.9961 78.0783
RightForeArm  58.9955 11.2926 1.51587
RightHand  -0.531335 -0.366103 -12.2889
LeftUpLeg  -5.85736 -4.6126 -2.22225
LeftLeg  9.18558 12.0554 1.15162
LeftFoot  0.799016 -0.00147106 0.317816
LeftToes  -16.7659 1.31424e-006 1.14295e-007
206
root  -15.1708 34.7249 -9.29397 -173.373 0.285202 178.794
RightUpLeg  -6.5178 -9.14556 0.334349
RightLeg  9.58907 1.02185 0.106725
RightFoot  0.704277 0.00724532 0.141371
RightToes  -23.9659 -0.102909 -0.207366
Spine  -3.42303 0.306488 -0.205758
Spine1  -6.89896 0.647988 0.242949
HEad  -65.2272 -3.28217 6.68818
LeftShoulder1  -1.94126e-019 -3.10601e-018 -2.51263e-017
LeftArm  -13.9729 26.9002 -80.5288
LeftForeArm  30.5175 -18.5974 -3.23768
LeftHand  -0.421227 -1.5643 7.37611
RightShoulder  -4.96962e-017 0 -2.36833e-017
RightArm  -28.6959 -26.0261 77.9753
RightForeArm  59.1434 11.2657 1.5169
RightHand  -0.527221 -0.500986 -12.5173
LeftUpLeg  -5.74995 -5.32616 -2.15268
LeftLeg  9.1128 12.7778 1.20335
LeftFoot  0.512058 -0.00196058 0.262484
LeftToes  -15.8936 1.31424e-006 1.14295e-007
207
root  -15.1672 34.7189 -9.35784 -173.384 0.271347 178.934
RightUpLeg  -6.24302 -8.85859 0.492038
RightLeg  9.25799 0.729839 0.0722877
RightFoot  0.846371 0.00733019 0.141561
RightToes  -23.2752 -0.100459 -0.20262
Spine  -3.43201 0.314447 -0.131122
Spine1  -6.91832 0.669614 0.387484
HEad  -64.7744 -3.1794 6.4703
LeftShoulder1  -1.94126e-019 -3.10601e-018 -2.51263e-017
LeftArm  -14.1681 26.9604 -80.9288
LeftForeArm  30.5291 -18.6594 -3.24186
LeftHand  -0.419431 -1.54707 7.33052
RightShoulder  -4.96962e-017 0 -2.36833e-017
RightArm  -28.7027 -25.9471 77.7873
RightForeArm  59.4156 11.219 1.51855
RightHand  -0.523085 -0.710343 -12.9539
LeftUpLeg  -5.70364 -6.74628 -2.10975
LeftLeg  9.33312 14.2173 1.39093
LeftFoot  0.163276 -3.66667e-005 0.187456
LeftToes  -14.5451 1.31424e-006 1.14295e-007
208
root  -15.1655 34.7138 -9.41573 -173.406 0.302307 179.106
RightUpLeg  -5.94938 -8.98396 0.64866
RightLeg  8.88572 0.861052 0.0794726
RightFoot  0.997023 0.00720351 0.14426
RightToes  -22.9288 -0.0989442 -0.199943
Spine  -3.40935 0.320841 -0.0580229
Spine1  -6.87364 0.688673 0.530357
HEad  -64.3781 -3.15366 6.46007
LeftShoulder1  -1.94126e-019 -3.10601e-018 -2.51263e-017
LeftArm  -14.1463 27.0265 -81.2749
LeftForeArm  30.4984 -18.8206 -3.2671
LeftHand  -0.418866 -1.64591 7.29377
RightShoulder  -4.96962e-017 0 -2.36833e-017
RightArm  -28.64 -25.7939 77.6194
RightForeArm  59.5168 11.2339 1.51773
RightHand  -0.521053 -0.846675 -13.277
LeftUpLeg  -5.77839 -7.5081 -2.00247
LeftLeg  9.81317 15.0543 1.59687
LeftFoot  -0.153871 0.00371139 0.104389
LeftToes  -13.5945 1.31424e-006 1.14295e-007
209
root  -15.1739 34.7112 -9.46518 -173.399 0.523773 179.222
RightUpLeg  -5.78402 -9.17127 0.720933
RightLeg  8.63608 1.24604 0.109064
RightFoot  1.102 0.00676426 0.151177
RightToes  -22.6936 -0.0976267 -0.198587
Spine  -3.3911 0.345605 -0.0159014
Spine1  -6.83771 0.744258 0.612154
HEad  -64.0833 -3.07171 6.49328
LeftShoulder1  -1.94126e-019 -3.10601e-018 -2.51263e-017
LeftArm  -13.9152 27.1594 -81.5119
LeftForeArm  30.4078 -18.9412 -3.28124
LeftHand  -0.418633 -1.63563 7.24258
RightShoulder  -4.96962e-017 0 -2.36833e-017
RightArm  -28.4507 -25.6153 77.5177
RightForeArm  59.4898 11.3152 1.51392
RightHand  -0.522395 -0.851016 -13.3235
LeftUpLeg  -5.77966 -7.50275 -1.92966
LeftLeg  10.0151 15.2526 1.67111
LeftFoot  -0.320631 0.00554468 0.0582906
LeftToes  -13.3096 1.31424e-006 1.14295e-007
210
root  -15.1809 34.7121 -9.51241 -173.396 0.881378 179.337
RightUpLeg  -5.62078 -8.93149 0.80404
RightLeg  8.37289 1.35573 0.112309
RightFoot  1.23417 0.00647126 0.156019
RightToes  -22.3724 -0.0964963 -0.197481
Spine  -3.36391 0.372301 0.020787
Spine1  -6.78396 0.804355 0.684372
HEad  -64.0442 -2.90349 6.6104
LeftShoulder1  -1.94126e-019 -3.10601e-018 -2.51263e-017
LeftArm  -13.8224 27.2819 -81.7015
LeftForeArm  30.4114 -18.8643 -3.25974
LeftHand  -0.421304 -1.64239 7.12831
RightShoulder  -4.96962e-017 0 -2.36833e-017
RightArm  -28.187 -25.3652 77.4544
RightForeArm  59.4819 11.4222 1.50829
RightHand  -0.528454 -0.802509 -13.2392
LeftUpLeg  -5.69887 -7.19473 -1.85968
LeftLeg  10.0538 15.3104 1.68762
LeftFoot  -0.326959 0.00509526 0.0565741
LeftToes  -13.2456 1.31424e-006 1.14295e-007
211
root  -15.1934 34.7155 -9.56018 -173.391 1.28659 179.428
RightUpLeg  -5.43284 -8.51398 0.866581
RightLeg  8.05041 1.31843 0.101792
RightFoot  1.39481 0.00629051 0.159537
RightToes  -22.0659 -0.0955422 -0.196603
Spine  -3.35204 0.367881 0.0509121
Spine1  -6.76068 0.802545 0.746628
HEad  -63.8428 -2.64377 6.56625
LeftShoulder1  -1.94126e-019 -3.10601e-018 -2.51263e-017
LeftArm  -13.8693 27.4476 -81.8381
LeftForeArm  30.3181 -18.6038 -3.21108
LeftHand  -0.424098 -1.63444 7.18199
RightShoulder  -4.96962e-017 0 -2.36833e-017
RightArm  -27.7628 -25.1087 77.4182
RightForeArm  59.3725 11.5404 1.50154
RightHand  -0.530956 -0.775542 -13.2404
LeftUpLeg  -5.52429 -7.09 -1.83908
LeftLeg  9.91062 15.6031 1.68017
LeftFoot  -0.233934 0.00360567 0.0816232
LeftToes  -12.7131 1.31424e-006 1.14295e-007
212
root  -15.2033 34.7219 -9.59938 -173.364 1.7029 179.503
RightUpLeg  -5.34655 -8.172 0.902702
RightLeg  7.85389 1.38485 0.102091
RightFoot  1.52129 0.00604027 0.164591
RightToes  -21.8792 -0.0947538 -0.195928
Spine  -3.35089 0.36429 0.0647789
Spine1  -6.75836 0.800788 0.777698
HEad  -63.5665 -2.38724 6.42679
LeftShoulder1  -1.94126e-019 -3.10601e-018 -2.51263e-017
LeftArm  -14.0141 27.5634 -81.9226
LeftForeArm  30.4006 -18.1847 -3.14096
LeftHand  -0.434251 -1.66004 7.32531
RightShoulder  -4.96962e-017 0 -2.36833e-017
RightArm  -27.4023 -24.9447 77.4611
RightForeArm  59.1213 11.7597 1.48731
RightHand  -0.533023 -0.725855 -13.2204
LeftUpLeg  -5.33474 -7.06088 -1.83465
LeftLeg  9.66936 16.0021 1.65486
LeftFoot  -0.0935478 0.00197252 0.121199
LeftToes  -12.0446 1.31424e-006 1.14295e-007
213
root  -15.2179 34.7294 -9.62551 -173.3 2.07155 179.545
RightUpLeg  -5.32259 -7.97107 0.910524
RightLeg  7.67717 1.52887 0.107856
RightFoot  1.63674 0.00570318 0.171692
RightToes  -21.7277 -0.0941201 -0.195435
Spine  -3.35119 0.351928 0.0585639
Spine1  -6.7584 0.779313 0.770673
HEad  -63.3542 -2.13792 6.27164
LeftShoulder1  -1.94126e-019 -3.10601e-018 -2.51263e-017
LeftArm  -14.2318 27.5596 -81.9289
LeftForeArm  30.6606 -17.5381 -3.03861
LeftHand  -0.458972 -1.91026 7.48633
RightShoulder  -4.96962e-017 0 -2.36833e-017
RightArm  -26.9688 -24.8812 77.5761
RightForeArm  58.5611 12.0934 1.46218
RightHand  -0.533939 -0.687601 -13.1608
LeftUpLeg  -5.16278 -6.70791 -1.83626
LeftLeg  9.31564 16.0233 1.55847
LeftFoot  0.108474 -1.75044e-005 0.18031
LeftToes  -11.6923 1.31424e-006 1.14295e-007
214
root  -15.2354 34.7379 -9.63459 -173.224 2.37477 179.576
RightUpLeg  -5.3286 -7.74327 0.912962
RightLeg  7.4921 1.58754 0.106802
RightFoot  1.78637 0.00549653 0.178002
RightToes  -21.6872 -0.0936307 -0.1951
Spine  -3.33372 0.33723 0.0403702
Spine1  -6.72255 0.751302 0.74
HEad  -63.4889 -1.9014 6.21449
LeftShoulder1  -1.94126e-019 -3.10601e-018 -2.51263e-017
LeftArm  -14.3648 27.4972 -81.8913
LeftForeArm  30.7921 -17.1806 -2.98359
LeftHand  -0.464755 -2.02482 7.4697
RightShoulder  -4.96962e-017 0 -2.36833e-017
RightArm  -26.4207 -24.8412 77.7205
RightForeArm  57.9678 12.4416 1.4316
RightHand  -0.531925 -0.65209 -13.0164
LeftUpLeg  -4.98849 -6.38128 -1.83617
LeftLeg  8.85805 15.9848 1.42783
LeftFoot  0.374458 -0.000313389 0.257539
LeftToes  -11.7415 1.31424e-006 1.14295e-007
215
root  -15.2534 34.7452 -9.62852 -173.136 2.59579 179.593
RightUpLeg  -5.34253 -7.55788 0.909178
RightLeg  7.27148 1.60825 0.101962
RightFoot  1.92769 0.00546871 0.183092
RightToes  -21.6772 -0.0932747 -0.194901
Spine  -3.29607 0.324329 0.00873563
Spine1  -6.64627 0.724808 0.681864
HEad  -63.7855 -1.75261 6.10654
LeftShoulder1  -1.94126e-019 -3.10601e-018 -2.51263e-017
LeftArm  -14.3619 27.3717 -81.7965
LeftForeArm  30.8641 -17.035 -2.96534
LeftHand  -0.456092 -1.92028 7.4283
RightShoulder  -4.96962e-017 0 -2.36833e-017
RightArm  -25.7816 -24.8009 77.8788
RightForeArm  57.4931 12.7329 1.40301
RightHand  -0.529491 -0.635216 -12.9126
LeftUpLeg  -4.82749 -6.18793 -1.84652
LeftLeg  8.35082 16.0003 1.28848
LeftFoot  0.640891 -0.00133608 0.334829
LeftToes  -11.792 1.31424e-006 1.14295e-007
216
root  -15.2699 34.7494 -9.60651 -173.059 2.71288 179.618
RightUpLeg  -5.39853 -7.43738 0.922304
RightLeg  7.12848 1.60446 0.0977035
RightFoot  2.02589 0.00592975 0.18283
RightToes  -21.6414 -0.0930412 -0.194814
Spine  -3.24259 0.309248 -0.0196611
Spine1  -6.53928 0.693606 0.627731
HEad  -64.238 -1.64602 6.04122
LeftShoulder1  -1.94126e-019 -3.10601e-018 -2.51263e-017
LeftArm  -14.2575 27.2265 -81.681
LeftForeArm  30.7758 -17.1187 -2.98076
LeftHand  -0.44982 -1.8926 7.35718
RightShoulder  -4.96962e-017 0 -2.36833e-017
RightArm  -25.3906 -24.7378 78.0278
RightForeArm  57.227 12.8873 1.38708
RightHand  -0.528994 -0.594004 -12.7937
LeftUpLeg  -4.74965 -6.06682 -1.83981
LeftLeg  7.96907 15.9969 1.18246
LeftFoot  0.844436 -0.00170901 0.393505
LeftToes  -11.8514 1.31424e-006 1.14295e-007
217
root  -15.2877 34.7511 -9.5728 -172.978 2.71254 179.63
RightUpLeg  -5.44534 -7.27532 0.93613
RightLeg  6.94879 1.43443 0.0829492
RightFoot  2.12883 0.00636992 0.180385
RightToes  -21.5417 -0.0929198 -0.194818
Spine  -3.18022 0.285845 -0.0543342
Spine1  -6.41519 0.644883 0.559291
HEad  -64.6498 -1.56815 6.00482
LeftShoulder1  -1.94126e-019 -3.10601e-018 -2.51263e-017
LeftArm  -14.1133 27.0571 -81.5642
LeftForeArm  30.5662 -17.4482 -3.03539
LeftHand  -0.455767 -1.87518 7.4686
RightShoulder  -4.96962e-017 0 -2.36833e-017
RightArm  -25.354 -24.6524 78.183
RightForeArm  57.1275 12.8939 1.38691
RightHand  -0.535898 -0.532647 -12.8026
LeftUpLeg  -4.75313 -6.05392 -1.83265
LeftLeg  7.68759 15.97 1.10274
LeftFoot  1.02574 -0.00253634 0.444931
LeftToes  -12.0405 1.31424e-006 1.14295e-007
